Coordinates
version=1
nRows=5
nColumns=40
inDegrees=yes

Units are S.I. units (second, meters, Newtons, ...)
If the header above contains a line with 'inDegrees', this indicates whether rotational values are in degrees (yes) or radians (no).

endheader
time	pelvis_tilt	pelvis_list	pelvis_rotation	pelvis_tx	pelvis_ty	pelvis_tz	hip_flexion_r	hip_adduction_r	hip_rotation_r	knee_angle_r	knee_angle_r_beta	ankle_angle_r	subtalar_angle_r	mtp_angle_r	hip_flexion_l	hip_adduction_l	hip_rotation_l	knee_angle_l	knee_angle_l_beta	ankle_angle_l	subtalar_angle_l	mtp_angle_l	lumbar_extension	lumbar_bending	lumbar_rotation	arm_flex_r	arm_add_r	arm_rot_r	elbow_flex_r	pro_sup_r	wrist_flex_r	wrist_dev_r	arm_flex_l	arm_add_l	arm_rot_l	elbow_flex_l	pro_sup_l	wrist_flex_l	wrist_dev_l
      0.56000000	      7.20796381	      6.37546032	     -2.25799659	      0.40462855	      0.94932880	     -0.22678753	     18.45482335	     -7.69028925	     -5.60392477	      9.62148989	      0.16792668	     -2.57070217	      0.00000000	      0.00000000	    -20.22511157	      9.00208638	     -3.18974861	      8.15127850	      0.14226665	     13.16512591	      0.00000000	      0.00000000	    -17.92180829	     -7.65938385	     -6.46000437	     -2.13546637	     -4.77917614	     10.92693098	     36.20244871	     88.87223830	     -2.78447528	      9.40172575	     13.09586200	    -12.89760300	      1.73661977	     68.05675137	     89.28168416	    -12.89100210	      4.84936877
      0.57000000	      7.17056363	      6.30940222	     -2.01158544	      0.41582757	      0.94776139	     -0.22615910	     18.36676053	     -7.46548500	     -5.04519855	      8.77730655	      0.15319290	     -2.95084582	      0.00000000	      0.00000000	    -20.58872688	      8.73841704	     -3.11824967	      8.91205936	      0.15554478	     13.47793782	      0.00000000	      0.00000000	    -17.97730093	     -7.41037679	     -6.55442598	     -2.08621716	     -4.69865242	     10.59030319	     36.14777654	     88.86985965	     -2.84404955	      9.38232580	     13.16294187	    -12.77866371	      1.65521370	     68.60678009	     89.28018026	    -12.82507476	      4.79540822
      0.58000000	      7.24909857	      6.03649982	     -1.74444909	      0.42725475	      0.94662601	     -0.22561722	     18.13289098	     -7.09357944	     -4.79956753	      8.33494198	      0.14547218	     -3.53903413	      0.00000000	      0.00000000	    -21.06311486	      8.25044634	     -3.17167050	      9.73630513	      0.16993058	     13.84432746	      0.00000000	      0.00000000	    -18.17968276	     -6.91269992	     -6.63947450	     -2.02097468	     -4.66575474	     10.22649406	     36.14255635	     88.89306272	     -2.89315979	      9.36789144	     13.08857386	    -12.55033445	      1.39629529	     69.17494163	     89.27873766	    -12.68843234	      4.75008395
      0.59000000	      7.24779051	      5.86381977	     -1.57525511	      0.43886701	      0.94555065	     -0.22487960	     18.10940937	     -6.83108872	     -4.45167092	      8.50051554	      0.14836198	     -3.68485707	      0.00000000	      0.00000000	    -21.46672975	      7.89378204	     -2.90281479	     10.49153783	      0.18311188	     13.62282185	      0.00000000	      0.00000000	    -18.22954400	     -6.56741804	     -6.53691922	     -1.95131682	     -4.68154427	     10.09569928	     36.00274052	     88.87542145	     -2.90969579	      9.38746134	     13.04643008	    -12.31162355	      1.35269096	     69.50103638	     89.28612756	    -12.63331065	      4.71017897
      0.60000000	      7.32040198	      5.58807441	     -1.37134124	      0.45058683	      0.94486228	     -0.22420486	     17.99169825	     -6.50963543	     -4.16293590	      8.99632971	      0.15701557	     -3.97169942	      0.00000000	      0.00000000	    -21.84354628	      7.40425438	     -2.77977690	     11.48668790	      0.20048052	     13.42618350	      0.00000000	      0.00000000	    -18.37659449	     -6.08370567	     -6.48608486	     -1.85047484	     -4.70248526	      9.89433401	     35.87687798	     88.86857915	     -2.93643194	      9.40322477	     12.87040111	    -12.04133183	      1.20707488	     69.79343041	     89.28785183	    -12.57500138	      4.65662153
